<svg xmlns="http://www.w3.org/2000/svg" viewBox="0 0 131 161.9">
  <style>
    .st4,.st5,.st6{fill-rule:evenodd;clip-rule:evenodd;fill:#4995EC}.st5,.st6{clip-path:url(#SVGID_4_);fill:#4995EC}.st6{fill:#4995EC}.st12{fill:#4995EC}.st13{fill:#ef4581}.st14,.st16{stroke:#4995EC;stroke-miterlimit:10}.st14{stroke-width:3;fill:none}.st16{fill:#4995EC}
  </style>
  <g id="Layer_2">
    <path class="st12" d="M66.9 127.1c28 0 51.8-17.9 60.6-42.8-10.5 19.1-30.8 32-54.2 32-34.2 0-61.8-27.7-61.8-61.8 0-17.7 7.4-33.6 19.3-44.9-17 11.6-28.1 31.1-28.1 53.3 0 35.5 28.7 64.2 64.2 64.2z"/>
    <path class="st13" d="M72.2 0C48.8 0 28.9 14.9 21.5 35.8 30.3 19.8 47.3 9 66.8 9c28.5 0 51.7 23.1 51.7 51.7 0 14.8-6.2 28.1-16.1 37.5 14.2-9.7 23.5-26 23.5-44.4C125.9 24 101.8 0 72.2 0z"/>
    <path class="st14" d="M74.7 72.7V86c0 11-5.1 17-19.8 17S38.3 92 38.3 75.7"/>
    <circle cx="38.3" cy="65.2" r="9" fill="#ef4581" stroke="#4995EC" stroke-width="3" stroke-miterlimit="10"/>
    <path class="st13" d="M3.2 150.2v11.2H0v-18.9h3.5l5.3 12.1c.4-1 .8-1.9 1.2-2.9.4-1 .8-1.9 1.2-2.9l2.5-6.3H17v18.9h-3.3V150l-.1.3-3.3 8.4H6.8l-3.6-8.5zM19.4 161.4v-18.9h11.7v2.2H23v5.7h7.1v2.1H23v6.6h8.8v2.2H19.4zM33.7 161.4v-18.9h5.7c1.3 0 2.5.1 3.5.3 1 .2 1.8.4 2.3.8.6.4 1.2.9 1.7 1.4s.9 1.2 1.2 1.8c.3.7.6 1.5.8 2.4s.3 1.8.3 2.8c0 1.9-.3 3.5-.9 4.9-.6 1.4-1.6 2.5-2.9 3.4-1.2.8-3.1 1.2-5.6 1.2h-6.1zm3.5-2.3h2.3c1.5 0 2.7-.2 3.6-.7.3-.2.7-.5.9-.9s.6-.9.8-1.4c.2-.5.4-1.1.5-1.8.1-.7.2-1.4.2-2.2 0-1.7-.2-3-.6-4.2-.4-1.3-1-2.1-1.7-2.5-.8-.5-2.1-.8-3.7-.8h-2.2v14.5zM54.5 161.4h-3.6v-18.9h3.6v18.9z"/>
    <path class="st12" d="M60.5 161.4h-3.6v-18.9h5.8c1.1 0 2 .1 2.7.2s1.3.3 1.7.5c.5.3.9.5 1.3.8.4.3.6.6.8 1 .2.4.4.9.5 1.4.1.5.2.9.2 1.4 0 .8-.2 1.6-.5 2.4-.3.8-.8 1.5-1.5 2.1-.6.6-1.4 1-2.4 1.3-1 .3-2.1.5-3.4.5h-1.7v7.3zm0-9.5h1.1c1.9 0 3.1-.4 3.8-1.2.6-.7.9-1.7.9-2.9 0-1.1-.2-1.8-.7-2.4-.5-.6-1.5-.9-2.8-.9h-2.2v7.4zM75.1 161.4h-3.6v-18.9h6.4c.8 0 1.5.1 2.1.2s1.1.3 1.4.5c.4.3.8.5 1.1.8s.6.6.8 1c.2.4.4.9.5 1.3.1.4.2.8.2 1.3 0 .7-.2 1.4-.5 2.1s-.8 1.3-1.3 1.9c-.2.2-.5.4-.9.7-.4.2-.9.5-1.4.7.2.1.4.3.6.3.1.1.2.2.3.2.3.3.6.7.8 1 .1.2.3.4.4.7.1.2.2.4.4.6l3.1 5.7h-3.9l-2.6-5c-.3-.6-.7-1.2-1.1-1.7-.4-.5-.8-1-1.2-1.3h-1.5v7.9zm0-10.1h1.8c.8 0 1.5-.2 2-.5.3-.2.7-.6 1-1.3.3-.5.4-1.1.4-1.9 0-.6-.1-1.2-.3-1.6s-.5-.8-.9-1c-.4-.3-1.1-.5-2-.5h-2v6.8zM86.5 161.4v-18.9h11.7v2.2h-8.1v5.7h7.1v2.1h-7.1v6.6h8.8v2.2H86.5zM100.2 157h3.6v.2c0 .5.1 1 .2 1.3.1.3.3.6.6.7.4.2.8.3 1.2.4.4.1.9.2 1.4.2.4 0 .8-.1 1.2-.2.4-.2.8-.4 1.1-.7.6-.5.9-1.3.9-2.4 0-.9-.2-1.5-.7-1.9-.3-.3-.8-.5-1.2-.8s-1-.5-1.5-.7l-1-.4c-.8-.3-1.4-.6-1.9-.9-.5-.3-.9-.5-1.2-.8-.8-.7-1.3-1.3-1.6-1.8-.4-.7-.5-1.5-.5-2.2 0-1.3.6-2.5 1.7-3.6 1-1 2.7-1.5 5.1-1.5 1.1 0 2 .1 2.8.3.7.2 1.3.5 1.7.8.4.4.8.8 1 1.3.2.4.4.9.4 1.3v.2h-3.6v-.2c0-.2 0-.3-.1-.5s-.1-.3-.2-.4l-.3-.3c-.1-.1-.3-.2-.5-.2-.5-.1-1-.2-1.5-.2-.9 0-1.7.3-2.2.9-.5.5-.7 1.1-.7 2 0 .5.1 1 .4 1.5.2.4.5.8.9 1 .3.2.6.4 1 .6.4.2.8.4 1.3.6l1.1.5c1 .4 1.8.9 2.5 1.3s1.1.8 1.4 1.2c.7 1 1 1.9 1 2.9 0 .4-.1.9-.2 1.4-.1.5-.3.9-.6 1.4-.2.4-.5.7-.9 1.1-.4.4-.9.7-1.4.9-.4.2-1 .4-1.6.5-.6.1-1.4.2-2.2.2-1.5 0-2.8-.2-3.8-.5-1-.4-1.8-.9-2.3-1.7-.3-.4-.5-.8-.6-1.3-.1-.4-.2-.9-.2-1.3v-.2zM121.2 161.4v-16.8h-6.4v-2.1H131v2.1h-6.3v16.8h-3.5z"/>
    <g>
      <path class="st14" d="M66.7 35.7s-13.4-.3-12.4 9 4.2 20.8 12.3 24.4"/>
      <circle class="st16" cx="67" cy="34.4" r="3.3"/>
    </g>
    <g>
      <path class="st14" d="M82.3 35.7s13.4-.3 12.4 9-4.2 20.8-12.3 24.4"/>
      <circle class="st16" cx="82" cy="34.3" r="3.3"/>
    </g>
    <path class="st12" d="M74.7 75.1c-12.4 0-18.5-10.1-20-15.4-.5-1.9.6-3.8 2.4-4.3 1.9-.5 3.8.6 4.3 2.4.1.4 3.1 10.3 13.2 10.3 10.2 0 13.1-9.9 13.2-10.3.5-1.9 2.5-2.9 4.3-2.4 1.9.5 2.9 2.4 2.4 4.3-1.3 5.3-7.3 15.4-19.8 15.4z"/>
  </g>
</svg>
